<?xml version="1.0" encoding="utf-8"?>
<!-- Generator: Adobe Illustrator 25.0.0, SVG Export Plug-In . SVG Version: 6.00 Build 0)  -->
<svg version="1.1" id="Layer_1" xmlns="http://www.w3.org/2000/svg" xmlns:xlink="http://www.w3.org/1999/xlink" x="0px" y="0px"
	 viewBox="0 0 710.9 440.3" style="enable-background:new 0 0 710.9 440.3;" xml:space="preserve">
<style type="text/css">
	.st0{fill:#26599A;}
	.st1{fill:#01963E;}
	.st2{fill:#FCDC00;}
	.st3{fill:#E6DE2C;}
	.st4{fill:#FBFDFC;}
	.st5{fill:#C4F3D9;}
</style>
<g>
	<path class="st0" d="M178.6,107.9c-13.7,26.2-26.7,51.1-39.8,76.1c-9.3,17.9-18.6,35.8-28,53.7c-1.7,3.2-1.5,3.9,2.3,4
		c10,0.4,20-1.5,29.9,0.1c11.6,1.8,19.5,8.3,24.2,19.2c1.9,4.5,3.8,8.9,3.1,13.9c-0.9,6.9-5.5,10.8-12.4,10.5
		c-22.3-0.9-44.6-2-67-2.2c-2.3,0-3.5,0.6-4.5,2.7c-6.9,14.8-14.3,29.3-20.5,44.4c-7.3,18.1-23.9,24.8-42.5,21.2
		c-8.1-1.6-15.3-9.4-9.2-20.1C58,254.8,98,176.2,137.7,97.4c2.5-5.1,5.3-10.1,7.5-15.3c6.2-14.6,18.3-21,32.9-23.5
		c11.1-1.8,22.1-0.8,32.7,3.1c9.9,3.7,15.8,10,16.5,21.4c1.8,32,5.7,63.8,9.5,95.6c2.8,23.4,4.9,46.9,7.8,70.2
		c2.3,18.1,7.6,35.5,17.5,51c8.9,13.9,20.1,25.8,36.6,30.4c15.7,4.4,31.6,2.9,47.3-1.1c4.2-1.1,6.3-3.9,7.8-7.9
		c3.5-9.7,4.9-19.9,6.3-30c1.9-13.7,4.9-27.2,7.2-40.9c0.8-4.5,1.4-9,2-13.6c1.5-11.6,9.4-19.8,21.2-20.9c6.4-0.6,13-1.2,19.5,0.5
		c10.7,2.9,16.1,11.8,13.7,22.5c-6.8,29.9-12.6,60.1-18.3,90.2c-2.3,12-11.6,20.3-26.3,23.2c-13.2,2.6-26.6,3.6-40,4.8
		c-14.5,1.3-29.1,2.5-43.6,1.8c-21.3-1.1-41.8-5.1-59.8-17.4c-18.3-12.5-28.7-30.4-35.1-51c-4.5-14.3-6.5-29.1-7.7-44.1
		c-1.4-17.5-3.4-35-5.2-52.5c-1.5-15.3-3.1-30.6-4.7-45.9C181.3,135.2,180,122.2,178.6,107.9z"/>
	<path class="st0" d="M529.1,359.3c-20.4-0.2-40.5-2.2-59.1-11c-17.4-8.2-30.5-20.6-35.2-40c-2.6-10.6-1.7-21.3,0-31.8
		c8-50.8,18.7-101.2,28.1-151.8c1-5.5,2.9-6.9,8.4-5.7c13.2,2.9,24.4,9.5,33.9,19c2.6,2.7,3.7,5.6,2.8,9.7c-7,36-14,72-19.9,108.2
		c-1.9,11.5-2.4,23.1-0.5,34.8c1.8,10.5,7.4,18.3,16.2,24c25.4,16.7,68.2,13.9,91.4-5.8c9.7-8.2,14.1-19.3,17.5-30.9
		c6.6-22.9,10.6-46.3,15-69.7c6-32.5,12-65,17.9-97.6c1.9-10.4,3.8-20.7,4.7-31.2c0.9-10.2,6.3-17,15.5-20.7
		c10.3-4.1,20.3-3.6,29.7,2.6c5.2,3.4,7.6,8.1,6.5,14.5c-4.3,25.5-9.1,50.9-14.6,76.2c-7.3,33.6-13.9,67.4-20.5,101.2
		c-2.5,12.7-5.6,25.3-9.6,37.7c-8.5,25.7-26.2,42.5-50.3,53.2c-19.3,8.6-39.7,12.5-60.7,14.3C540.5,359,534.8,359.4,529.1,359.3z"/>
	<path class="st1" d="M251.8,198.6c-1,2.2-1.3,4.7-3.2,6.9c-1.8-3.1-1.7-6-1.4-8.8c7.1-53.6,26.9-101.2,67.2-138.6
		c23.6-21.9,51.7-35.3,83.1-42c25.7-5.5,51.7-5.9,77.8-2.7c14.5,1.8,28.6,4.8,42.8,8.2c5.4,1.3,7.9,4.2,9,9.3
		c2.6,11.4,2.3,22.8,1.1,34.3c-0.1,0.7,0,1.4-0.1,2c0.8,4.8-0.9,9-3.4,12.9c-2,3.1-4.9,2.5-7.8,1.3c-10.6-4.5-21.6-8-32.8-10.8
		c-17.8-4.4-35.8-7.2-54.2-7.7c-19.6-0.6-39,0.6-58.2,5.1c-22.2,5.2-42.9,13.7-60.4,28.6c-19,16.1-34.7,35-43.8,58.8
		c-1.6,4.1-3.3,8.2-4.9,12.4C258.4,177.8,255.9,188.5,251.8,198.6z"/>
	<path class="st2" d="M261.8,167.5c6.1-17.9,14.2-34.8,26.5-49.5c18.6-22.2,41.2-38.5,69-47.2c22.2-7,44.9-9.7,68.1-9.2
		c32.3,0.6,63.3,7,93,19.4c3.7,1.5,5.2-0.3,6.5-2.9c1.7-3.4,2-7.2,3.1-10.7c2.7,1,5.5,2,8.1,3.2c2.3,1,3.5,2.9,4.1,5.4
		c1.7,6.7,1.4,13.5,0.7,20.3c-1,9.1-2.3,18.1-5.9,26.7c-2.9,6.8-4.5,7.4-10.8,3.7c-28.8-17-59.8-28.5-92.7-34.2
		c-25.6-4.5-51.3-5.1-76.8,1.3c-34.8,8.7-61.7,28-79.5,59.4c-2.8,4.9-5.6,9.9-8.4,14.8c-3,4.8-5.4,9.8-7.5,15l0,0
		c-3.2,0.7-2.2-1.5-1.7-2.9C259,175.7,260.5,171.7,261.8,167.5z"/>
	<path class="st3" d="M261.8,167.5c0,4.4-2.4,8.1-3.5,12.2c-0.4,1.4-1,2.7,1.1,3.1c-2.2,5.5-4.3,11-7.7,15.9
		C254.1,187.9,257.5,177.6,261.8,167.5z"/>
	<path class="st3" d="M259.4,182.7c1.3-5.6,3.6-10.7,7.5-15C264.9,172.9,262.3,177.9,259.4,182.7z"/>
	<path class="st4" d="M290.9,90.9c6.7-10.1,14.8-18.8,23.7-26.9c27.3-24.8,59.7-38.5,96.1-43c34.1-4.2,67.4-0.3,100.4,8.6
		c5.3,1.4,5.6,5.8,6.8,10.2c-10-2-19.5-4.1-29.1-5.7c-42-7.1-83.6-7-124.2,7.8c-23.5,8.6-44.1,21.8-62.1,39
		c-3.7,3.5-7.2,7.3-10.8,10.9C291,91.8,290.6,91.7,290.9,90.9z"/>
	<path class="st5" d="M290.9,90.9c0.3,0.3,0.5,0.6,0.8,0.9c-1.3,2.6-3.5,4.4-5.5,6.4C287.3,95.5,288.8,93,290.9,90.9z"/>
</g>
<g>
	<path class="st0" d="M13.2,432.4l12.7-33.1h4.7l13.5,33.1h-5l-3.9-10H21.4l-3.6,10H13.2z M22.7,418.8h11.2l-3.5-9.2
		c-1.1-2.8-1.8-5.1-2.3-6.9c-0.4,2.1-1,4.2-1.8,6.3L22.7,418.8z"/>
	<path class="st0" d="M47.6,432.4v-33.1H59c2.6,0,4.5,0.2,5.9,0.5c1.9,0.4,3.5,1.2,4.9,2.4c1.7,1.5,3.1,3.4,3.9,5.7
		c0.9,2.3,1.3,4.9,1.3,7.9c0,2.5-0.3,4.7-0.9,6.7s-1.3,3.5-2.3,4.8c-0.9,1.3-1.9,2.3-3,3c-1.1,0.7-2.4,1.3-4,1.7
		c-1.5,0.4-3.3,0.6-5.3,0.6H47.6z M52,428.5h7.1c2.2,0,3.9-0.2,5.1-0.6c1.2-0.4,2.2-1,3-1.7c1-1,1.8-2.4,2.4-4.2
		c0.6-1.8,0.9-3.9,0.9-6.4c0-3.5-0.6-6.1-1.7-8c-1.1-1.9-2.5-3.1-4.1-3.7c-1.2-0.5-3.1-0.7-5.7-0.7h-7V428.5z"/>
	<path class="st0" d="M90.5,432.4l-12.8-33.1h4.7l8.6,24c0.7,1.9,1.3,3.7,1.7,5.4c0.5-1.8,1.1-3.6,1.8-5.4l8.9-24h4.5l-13,33.1H90.5
		z"/>
	<path class="st0" d="M110.5,416.3c0-5.5,1.5-9.8,4.4-12.9c2.9-3.1,6.8-4.7,11.4-4.7c3.1,0,5.8,0.7,8.3,2.2c2.5,1.5,4.3,3.5,5.6,6.1
		c1.3,2.6,1.9,5.6,1.9,8.9c0,3.4-0.7,6.4-2,9c-1.4,2.6-3.3,4.7-5.8,6c-2.5,1.4-5.2,2-8,2c-3.1,0-5.9-0.8-8.4-2.3
		c-2.5-1.5-4.3-3.6-5.6-6.2C111.2,421.9,110.5,419.2,110.5,416.3z M115,416.4c0,4,1.1,7.1,3.2,9.4c2.1,2.3,4.8,3.4,8.1,3.4
		c3.3,0,6-1.2,8.1-3.5c2.1-2.3,3.2-5.6,3.2-9.9c0-2.7-0.5-5-1.4-7.1c-0.9-2-2.2-3.6-4-4.7c-1.8-1.1-3.7-1.7-5.9-1.7
		c-3.1,0-5.8,1.1-8,3.2C116.2,407.8,115,411.4,115,416.4z"/>
	<path class="st0" d="M171.4,420.8l4.4,1.1c-0.9,3.6-2.6,6.3-5,8.2c-2.4,1.9-5.3,2.8-8.7,2.8c-3.6,0-6.5-0.7-8.7-2.2
		c-2.2-1.5-3.9-3.6-5.1-6.3c-1.2-2.8-1.7-5.7-1.7-8.9c0-3.4,0.7-6.5,2-9c1.3-2.6,3.2-4.5,5.6-5.8c2.4-1.3,5.1-2,8-2
		c3.3,0,6.1,0.8,8.4,2.5c2.3,1.7,3.8,4.1,4.7,7.1l-4.3,1c-0.8-2.4-1.9-4.2-3.3-5.3c-1.5-1.1-3.3-1.6-5.5-1.6c-2.5,0-4.7,0.6-6.4,1.8
		c-1.7,1.2-2.9,2.9-3.6,4.9c-0.7,2.1-1,4.2-1,6.4c0,2.8,0.4,5.3,1.2,7.4c0.8,2.1,2.1,3.7,3.8,4.7c1.7,1,3.6,1.6,5.6,1.6
		c2.5,0,4.5-0.7,6.2-2.1C169.7,425.7,170.8,423.6,171.4,420.8z"/>
	<path class="st0" d="M177.6,432.4l12.7-33.1h4.7l13.5,33.1h-5l-3.9-10h-13.8l-3.6,10H177.6z M187.1,418.8h11.2l-3.5-9.2
		c-1.1-2.8-1.8-5.1-2.3-6.9c-0.4,2.1-1,4.2-1.8,6.3L187.1,418.8z"/>
	<path class="st0" d="M235.7,420.8l4.4,1.1c-0.9,3.6-2.6,6.3-5,8.2c-2.4,1.9-5.3,2.8-8.7,2.8c-3.6,0-6.5-0.7-8.7-2.2
		c-2.2-1.5-3.9-3.6-5.1-6.3c-1.2-2.8-1.7-5.7-1.7-8.9c0-3.4,0.7-6.5,2-9c1.3-2.6,3.2-4.5,5.6-5.8c2.4-1.3,5.1-2,8-2
		c3.3,0,6.1,0.8,8.4,2.5s3.8,4.1,4.7,7.1l-4.3,1c-0.8-2.4-1.9-4.2-3.3-5.3c-1.5-1.1-3.3-1.6-5.5-1.6c-2.5,0-4.7,0.6-6.4,1.8
		c-1.7,1.2-2.9,2.9-3.6,4.9c-0.7,2.1-1,4.2-1,6.4c0,2.8,0.4,5.3,1.2,7.4c0.8,2.1,2.1,3.7,3.8,4.7c1.7,1,3.6,1.6,5.6,1.6
		c2.5,0,4.5-0.7,6.2-2.1C233.9,425.7,235.1,423.6,235.7,420.8z"/>
	<path class="st0" d="M246.2,432.4v-33.1h4.4v33.1H246.2z"/>
	<path class="st0" d="M254.7,432.4l12.7-33.1h4.7l13.5,33.1h-5l-3.9-10h-13.8l-3.6,10H254.7z M264.2,418.8h11.2l-3.5-9.2
		c-1.1-2.8-1.8-5.1-2.3-6.9c-0.4,2.1-1,4.2-1.8,6.3L264.2,418.8z"/>
	<path class="st0" d="M287,422.5v-4.1h12.5v4.1H287z"/>
	<path class="st0" d="M320,419.4v-3.9l14,0v12.3c-2.2,1.7-4.4,3-6.7,3.9c-2.3,0.9-4.6,1.3-7,1.3c-3.3,0-6.2-0.7-8.9-2.1
		c-2.7-1.4-4.7-3.4-6-6c-1.4-2.6-2-5.6-2-8.8c0-3.2,0.7-6.2,2-9c1.3-2.8,3.3-4.9,5.8-6.2s5.4-2,8.7-2c2.4,0,4.6,0.4,6.5,1.2
		c1.9,0.8,3.5,1.9,4.5,3.2c1.1,1.4,1.9,3.2,2.5,5.4l-4,1.1c-0.5-1.7-1.1-3-1.9-4c-0.7-1-1.8-1.7-3.2-2.3c-1.4-0.6-2.9-0.9-4.6-0.9
		c-2,0-3.7,0.3-5.2,0.9c-1.5,0.6-2.6,1.4-3.5,2.4c-0.9,1-1.6,2.1-2.1,3.3c-0.8,2-1.3,4.3-1.3,6.7c0,3,0.5,5.4,1.5,7.4
		c1,2,2.5,3.5,4.4,4.4c1.9,1,4,1.4,6.2,1.4c1.9,0,3.7-0.4,5.6-1.1s3.2-1.5,4.1-2.3v-6.2H320z"/>
	<path class="st0" d="M340.6,432.4v-33.1h23.9v3.9H345v10.1h18.3v3.9H345v11.3h20.3v3.9H340.6z"/>
	<path class="st0" d="M371.4,432.4v-33.1h14.7c2.9,0,5.2,0.3,6.7,0.9c1.5,0.6,2.8,1.6,3.7,3.1s1.4,3.2,1.4,5c0,2.3-0.8,4.3-2.3,5.9
		c-1.5,1.6-3.9,2.6-7,3.1c1.2,0.6,2,1.1,2.6,1.6c1.3,1.2,2.5,2.6,3.6,4.4l5.8,9h-5.5l-4.4-6.9c-1.3-2-2.3-3.5-3.2-4.6
		c-0.8-1.1-1.6-1.8-2.2-2.2c-0.7-0.4-1.3-0.7-2-0.9c-0.5-0.1-1.3-0.2-2.4-0.2h-5.1v14.7H371.4z M375.8,413.9h9.4
		c2,0,3.6-0.2,4.7-0.6s2-1.1,2.6-2c0.6-0.9,0.9-1.9,0.9-3c0-1.6-0.6-2.9-1.7-3.9c-1.1-1-2.9-1.5-5.4-1.5h-10.5V413.9z"/>
	<path class="st0" d="M401.1,432.4l12.7-33.1h4.7l13.5,33.1h-5l-3.9-10h-13.8l-3.6,10H401.1z M410.6,418.8h11.2l-3.5-9.2
		c-1.1-2.8-1.8-5.1-2.3-6.9c-0.4,2.1-1,4.2-1.8,6.3L410.6,418.8z"/>
	<path class="st0" d="M435.4,432.4v-33.1h4.4v29.2h16.3v3.9H435.4z"/>
	<path class="st0" d="M472.4,432.4v-33.1h11.4c2.6,0,4.5,0.2,5.9,0.5c1.9,0.4,3.5,1.2,4.9,2.4c1.7,1.5,3.1,3.4,3.9,5.7
		c0.9,2.3,1.3,4.9,1.3,7.9c0,2.5-0.3,4.7-0.9,6.7s-1.3,3.5-2.3,4.8c-0.9,1.3-1.9,2.3-3,3c-1.1,0.7-2.4,1.3-4,1.7
		c-1.5,0.4-3.3,0.6-5.3,0.6H472.4z M476.8,428.5h7.1c2.2,0,3.9-0.2,5.1-0.6c1.2-0.4,2.2-1,3-1.7c1-1,1.8-2.4,2.4-4.2
		c0.6-1.8,0.9-3.9,0.9-6.4c0-3.5-0.6-6.1-1.7-8c-1.1-1.9-2.5-3.1-4.1-3.7c-1.2-0.5-3.1-0.7-5.7-0.7h-7V428.5z"/>
	<path class="st0" d="M502.2,432.4l12.7-33.1h4.7l13.5,33.1h-5l-3.9-10h-13.8l-3.6,10H502.2z M511.7,418.8h11.2l-3.5-9.2
		c-1.1-2.8-1.8-5.1-2.3-6.9c-0.4,2.1-1,4.2-1.8,6.3L511.7,418.8z"/>
	<path class="st0" d="M568.6,399.3h4.4v19.1c0,3.3-0.4,6-1.1,7.9c-0.8,2-2.1,3.5-4.1,4.8c-2,1.2-4.5,1.8-7.7,1.8
		c-3.1,0-5.6-0.5-7.6-1.6c-2-1.1-3.4-2.6-4.2-4.6c-0.8-2-1.3-4.8-1.3-8.3v-19.1h4.4v19.1c0,2.9,0.3,5,0.8,6.4
		c0.5,1.4,1.5,2.4,2.8,3.1c1.3,0.7,2.9,1.1,4.8,1.1c3.2,0,5.5-0.7,6.9-2.2c1.4-1.5,2.1-4.3,2.1-8.4V399.3z"/>
	<path class="st0" d="M580.3,432.4v-33.1h4.5l17.4,26v-26h4.2v33.1h-4.5l-17.4-26v26H580.3z"/>
	<path class="st0" d="M614.5,432.4v-33.1h4.4v33.1H614.5z"/>
	<path class="st0" d="M622.9,432.4l12.7-33.1h4.7l13.5,33.1h-5l-3.9-10h-13.8l-3.6,10H622.9z M630.9,397.3c0-1.6,0.4-2.8,1.3-3.7
		c0.9-0.9,2-1.4,3.3-1.4c0.9,0,2.2,0.4,3.8,1.2c0.9,0.5,1.6,0.7,2.1,0.7c0.5,0,0.9-0.1,1.1-0.4c0.3-0.3,0.4-0.8,0.5-1.6h2.9
		c0,1.7-0.5,3-1.3,3.9c-0.8,0.9-1.9,1.3-3.1,1.3c-0.9,0-2.2-0.4-3.7-1.3c-1-0.5-1.7-0.8-2.2-0.8c-0.5,0-0.9,0.2-1.2,0.5
		c-0.3,0.4-0.5,0.9-0.5,1.6H630.9z M632.5,418.8h11.2l-3.5-9.2c-1.1-2.8-1.8-5.1-2.3-6.9c-0.4,2.1-1,4.2-1.8,6.3L632.5,418.8z"/>
	<path class="st0" d="M656.1,416.3c0-5.5,1.5-9.8,4.4-12.9c2.9-3.1,6.8-4.7,11.4-4.7c3.1,0,5.8,0.7,8.3,2.2c2.5,1.5,4.3,3.5,5.6,6.1
		c1.3,2.6,1.9,5.6,1.9,8.9c0,3.4-0.7,6.4-2,9c-1.4,2.6-3.3,4.7-5.8,6c-2.5,1.4-5.2,2-8,2c-3.1,0-5.9-0.8-8.4-2.3
		c-2.5-1.5-4.3-3.6-5.6-6.2C656.7,421.9,656.1,419.2,656.1,416.3z M660.6,416.4c0,4,1.1,7.1,3.2,9.4s4.8,3.4,8.1,3.4
		c3.3,0,6-1.2,8.1-3.5c2.1-2.3,3.2-5.6,3.2-9.9c0-2.7-0.5-5-1.4-7.1c-0.9-2-2.2-3.6-4-4.7c-1.8-1.1-3.7-1.7-5.9-1.7
		c-3.1,0-5.8,1.1-8,3.2C661.7,407.8,660.6,411.4,660.6,416.4z"/>
</g>
</svg>
