<svg width="70" height="70" viewBox="0 0 70 70" fill="none" xmlns="http://www.w3.org/2000/svg">
<circle cx="34.6587" cy="34.6587" r="26.6587" fill="white"/>
<circle cx="34.6587" cy="34.6587" r="30.6587" stroke="#0F377F" stroke-opacity="0.3" stroke-width="8"/>
<g clip-path="url(#clip0_191_143)">
<path d="M42.0524 30.8519L32.9237 24.158C32.2106 23.6359 31.367 23.3214 30.4862 23.2494C29.6054 23.1775 28.7219 23.3508 27.9335 23.7502C27.1452 24.1496 26.4829 24.7595 26.02 25.5123C25.5571 26.2651 25.3116 27.1314 25.3109 28.0151V41.4097C25.3095 42.2942 25.5537 43.1619 26.0162 43.916C26.4786 44.67 27.1413 45.281 27.9304 45.6808C28.7195 46.0806 29.604 46.2536 30.4856 46.1805C31.3672 46.1074 32.2112 45.7911 32.9237 45.2667L42.0524 38.5728C42.6582 38.1283 43.1507 37.5474 43.4902 36.8771C43.8297 36.2069 44.0066 35.4661 44.0066 34.7148C44.0066 33.9634 43.8297 33.2227 43.4902 32.5524C43.1507 31.8821 42.6582 31.3012 42.0524 30.8567V30.8519Z" fill="#0F377F"/>
</g>
<defs>
<clipPath id="clip0_191_143">
<rect width="22.8503" height="22.8503" fill="white" transform="matrix(0 1 -1 0 46.0839 23.2335)"/>
</clipPath>
</defs>
</svg>
